# xmcd
#
# Track frame offsets:
#	150
#	18757
#	36770
#	62585
#	81579
#	104398
#	117710
#	154190
#	175421
#	185653
#	200036
#	216925
#	249573
#	263146
#	280613
#
# Disc length: 3990 seconds
#
# Revision: 1
# Processed by: cddbd v1.5.2PL0 Copyright (c) Steve Scherf et al.
# Submitted via: audiograbber 1.83.01
#
DISCID=de0f940f
DTITLE=Rob Tognoni - Capital Wah
DYEAR=2007
DGENRE=Blues-Rock
TTITLE0=The Rain
TTITLE1=Isolate
TTITLE2=Like A Rolling Stone
TTITLE3=Dogs With Fleas
TTITLE4=Let Your Love Fly
TTITLE5=My Detonation
TTITLE6=Redhouse  [Live]
TTITLE7=Shoot To Kill
TTITLE8=Reboot
TTITLE9=I Got You - You Got Me
TTITLE10=The Good Die Young  [Original]
TTITLE11=Product Of A Southern Land  [Live]
TTITLE12=God Bless America
TTITLE13=Ballad Of Julie-Ann
TTITLE14=Stupify Me
EXTD=
EXTT0=
EXTT1=
EXTT2=
EXTT3=
EXTT4=
EXTT5=
EXTT6=
EXTT7=
EXTT8=
EXTT9=
EXTT10=
EXTT11=
EXTT12=
EXTT13=
EXTT14=
PLAYORDER=
